<svg width="2025" height="551" viewBox="0 0 2025 551" fill="none" xmlns="http://www.w3.org/2000/svg">
<path fill-rule="evenodd" clip-rule="evenodd" d="M1228.1 243C1228.1 215 1228.1 187.5 1228.1 159.3C1230.1 159.3 1231.9 159.3 1233.6 159.3C1266.5 159.3 1299.3 159.1 1332.1 159.4C1352.3 159.6 1371.7 163.8 1389.4 174.2C1407.1 184.7 1417.4 200.1 1421.1 220.3C1425 242.2 1423.4 263.3 1412.3 283.2C1402.9 299.8 1389 310.2 1370.6 314.8C1369.2 315.2 1367.8 315.5 1365.9 316C1393.4 351.9 1420.6 387.4 1448.4 423.7C1441.4 423.7 1435.5 423.7 1429.5 423.7C1409.2 423.7 1388.9 423.5 1368.6 423.8C1364.1 423.8 1361.5 422.6 1359 418.7C1339.6 387.8 1320 357.2 1300.4 326.5C1299.8 325.5 1299.1 324.6 1297.6 323.8C1297.6 356.9 1297.6 390 1297.6 423.4C1274.2 423.4 1251.4 423.4 1228.1 423.4C1228.1 363.3 1228.1 303.4 1228.1 243ZM1297.3 225.5C1297.3 242.767 1297.3 260.033 1297.3 277.3C1310.3 279 1322.3 277.5 1334 273C1343.6 269.3 1349.4 262.6 1350.6 252.4C1351.9 241.3 1352 229.7 1342.1 222.2C1329 212.3 1313.3 211.6 1297.3 212.5C1297.3 216.9 1297.3 220.7 1297.3 225.5Z" fill="#1F2937"/>
<path d="M928.5 423.7C924.8 424.3 924.4 421.7 923.5 419.6C909.833 387.133 896.2 354.667 882.6 322.2C860.4 269.533 838.233 216.9 816.1 164.3C815.6 162.9 815.1 161.5 814.4 159.7C816.2 159.5 817.6 159.3 819 159.3C840.7 159.3 862.3 159.4 884 159.2C887.9 159.2 889.7 160.3 891.1 164.1C911.2 214.9 931.4 265.7 951.6 316.4C951.8 317 952.1 317.6 952.8 318.9C956.4 310 959.7 301.8 963 293.5C980.4 250.033 997.733 206.567 1015 163.1C1015.9 160.8 1016.8 159.2 1019.8 159.2C1043 159.4 1066.2 159.3 1089.3 159.4C1089.8 159.4 1090.3 159.5 1091.3 159.8C1089.8 163.5 1088.4 167.2 1086.8 170.8C1051.5 253.6 1016.1 336.3 980.8 419.1C979.4 422.5 977.8 423.9 974 423.8C959 423.5 944 423.7 928.5 423.7Z" fill="#1F2937"/>
<path d="M1586.3 255C1586.3 223 1586.3 191.6 1586.3 159.7C1636.6 159.7 1686.4 159.7 1736.6 159.7C1736.6 178.9 1736.6 198 1736.6 217.7C1709.7 217.7 1682.6 217.7 1655.6 217.7C1655.6 232.6 1655.6 246.9 1655.6 261.6C1681.2 261.6 1706.6 261.6 1732.4 261.6C1732.4 281.2 1732.4 300.2 1732.4 319.8C1706.8 319.8 1681.3 319.8 1655.5 319.8C1655.5 335.1 1655.5 349.9 1655.5 365.1C1682.5 365.1 1709.4 365.1 1736.6 365.1C1736.6 384.7 1736.6 403.8 1736.6 423.3C1686.8 423.3 1636.9 423.3 1586.3 423.3C1586.3 367.3 1586.3 311.4 1586.3 255Z" fill="#1F2937"/>
<path d="M677.3 277C677.3 326.1 677.3 374.7 677.3 423.5C654.2 423.5 631.6 423.5 608.7 423.5C608.7 335.5 608.7 247.8 608.7 159.7C631.3 159.7 654 159.7 677.3 159.7C677.3 198.6 677.3 237.6 677.3 277Z" fill="#1F2937"/>
<path d="M207 218C207 198.9 207 180.2 207 161.3C229.6 161.3 252 161.3 274.8 161.3C274.8 225.3 274.8 289.4 274.8 354C277 354 278.8 354 280.5 354C313.8 354 347.2 354.1 380.5 353.9C384.9 353.9 386.1 355.2 386.1 359.6C385.9 380.2 386 400.8 386 421.7C326.3 421.7 266.9 421.7 207 421.7C207 354 207 286.2 207 218Z" fill="#1F2937"/>
<path fill-rule="evenodd" clip-rule="evenodd" d="M46 358C46 255.2 46 152.9 46 50.3C212.7 50.3 379.1 50.3 545.7 50.3C545.7 211.1 545.7 371.6 545.7 532.6C379.4 532.6 213.1 532.6 46 532.6C46 474.7 46 416.6 46 358ZM282.5 90.1C217.1 90.1 151.7 90.1 86.5 90.1C86.5 224.9 86.5 358.8 86.5 492.6C226.4 492.6 366 492.6 505.6 492.6C505.6 358.4 505.6 224.5 505.6 90.1C431.4 90.1 357.4 90.1 282.5 90.1Z" fill="#3BCE23"/>
<path fill-rule="evenodd" clip-rule="evenodd" d="M0 307.7C0 204.9 0 102.6 0 0C166.7 0 333.1 0 499.7 0C499.7 160.8 499.7 321.3 499.7 482.3C333.4 482.3 167.1 482.3 0 482.3C0 424.4 0 366.3 0 307.7ZM236.5 39.8C171.1 39.8 105.7 39.8 40.5 39.8C40.5 174.6 40.5 308.5 40.5 442.3C180.4 442.3 320 442.3 459.6 442.3C459.6 308.1 459.6 174.2 459.6 39.8C385.4 39.8 311.4 39.8 236.5 39.8Z" fill="#3BCE23"/>
<path d="M1874 254.3C1874 222.3 1874 190.9 1874 159C1924.3 159 1974.1 159 2024.3 159C2024.3 178.2 2024.3 197.3 2024.3 217C1997.4 217 1970.3 217 1943.3 217C1943.3 231.9 1943.3 246.2 1943.3 260.9C1968.9 260.9 1994.3 260.9 2020.1 260.9C2020.1 280.5 2020.1 299.5 2020.1 319.1C1994.5 319.1 1969 319.1 1943.2 319.1C1943.2 334.4 1943.2 349.2 1943.2 364.4C1970.2 364.4 1997.1 364.4 2024.3 364.4C2024.3 384 2024.3 403.1 2024.3 422.6C1974.5 422.6 1924.6 422.6 1874 422.6C1874 366.6 1874 310.7 1874 254.3Z" fill="#3BCE23"/>
</svg>
